<?xml version="1.0" encoding="iso-8859-1"?>
<!-- Generator: Adobe Illustrator 19.0.0, SVG Export Plug-In . SVG Version: 6.00 Build 0)  -->
<svg version="1.1" id="Capa_1" xmlns="http://www.w3.org/2000/svg" xmlns:xlink="http://www.w3.org/1999/xlink" x="0px" y="0px"
	 viewBox="0 0 512 512" style="enable-background:new 0 0 512 512;" xml:space="preserve">
<path style="fill:#FFFCE9;" d="M59.733,392.533H179.2V256H59.733V392.533z M98.304,330.112c-2.893-4.233-4.446-9.25-4.437-14.379
	V307.2c0-14.14,11.46-25.6,25.6-25.6s25.6,11.46,25.6,25.6v8.533c0.009,5.129-1.545,10.146-4.437,14.379
	c13.252,7.535,21.453,21.581,21.504,36.821c0,4.71-3.823,8.533-8.533,8.533H85.333c-4.71,0-8.533-3.823-8.533-8.533
	C76.851,351.693,85.052,337.647,98.304,330.112z"/>
<g>
	<path style="fill:#77BAFC;" d="M119.467,341.333c-10.846,0.017-20.514,6.844-24.141,17.067h48.282
		C139.981,348.177,130.313,341.35,119.467,341.333z"/>
	<path style="fill:#77BAFC;" d="M119.467,324.267c4.71,0,8.533-3.823,8.533-8.533V307.2c0-4.71-3.823-8.533-8.533-8.533
		c-4.71,0-8.533,3.823-8.533,8.533v8.533C110.933,320.444,114.756,324.267,119.467,324.267z"/>
</g>
<path style="fill:#FEE9AB;" d="M366.933,196.267c0,4.71-3.823,8.533-8.533,8.533H153.6c-4.71,0-8.533-3.823-8.533-8.533v-34.133
	h-128v307.2h477.867v-307.2h-128V196.267z M238.933,247.467h34.133v17.067h-34.133V247.467z M196.267,401.067
	c0,4.71-3.823,8.533-8.533,8.533H51.2c-4.71,0-8.533-3.823-8.533-8.533v-153.6c0-4.71,3.823-8.533,8.533-8.533h136.533
	c4.71,0,8.533,3.823,8.533,8.533V401.067z M443.733,392.533h-204.8v-17.067h204.8V392.533z M443.733,349.867h-204.8V332.8h204.8
	V349.867z M443.733,307.2h-204.8v-17.067h204.8V307.2z M443.733,264.533h-153.6v-17.067h153.6V264.533z"/>
<g>
	<path style="fill:#FFFCE9;" d="M349.867,102.4h-43.435c-4.71,0-8.533-3.823-8.533-8.533c0-0.427,0.034-0.853,0.094-1.271
		c0.41-2.398,0.631-4.83,0.674-7.262c0-23.561-19.106-42.667-42.667-42.667s-42.667,19.106-42.667,42.667
		c0.043,2.432,0.265,4.864,0.674,7.262c0.7,4.659-2.509,9.011-7.168,9.711c-0.418,0.06-0.845,0.094-1.271,0.094h-43.435v85.333
		h187.733V102.4z M256,110.933c-14.14,0-25.6-11.46-25.6-25.6s11.46-25.6,25.6-25.6c14.14,0,25.6,11.46,25.6,25.6
		S270.14,110.933,256,110.933z"/>
	<circle style="fill:#FFFCE9;" cx="256" cy="85.333" r="8.533"/>
</g>
<g>
	<path style="fill:#231F20;" d="M503.467,145.067H366.933v-51.2c0-4.71-3.823-8.533-8.533-8.533h-42.667
		c0-32.99-26.743-59.733-59.733-59.733s-59.733,26.743-59.733,59.733H153.6c-4.71,0-8.533,3.823-8.533,8.533v51.2H8.533
		C3.823,145.067,0,148.89,0,153.6v324.267c0,4.71,3.823,8.533,8.533,8.533h494.933c4.71,0,8.533-3.823,8.533-8.533V153.6
		C512,148.89,508.177,145.067,503.467,145.067z M162.133,102.4h43.435c4.71,0,8.533-3.823,8.533-8.533
		c0-0.427-0.034-0.853-0.094-1.271c-0.41-2.398-0.631-4.83-0.674-7.262c0-23.561,19.106-42.667,42.667-42.667
		c23.561,0,42.667,19.106,42.667,42.667c-0.043,2.432-0.265,4.864-0.674,7.262c-0.7,4.659,2.509,9.011,7.168,9.711
		c0.418,0.06,0.845,0.094,1.271,0.094h43.435v85.333H162.133V102.4z M494.933,469.333H17.067v-307.2h128v34.133
		c0,4.71,3.823,8.533,8.533,8.533h204.8c4.71,0,8.533-3.823,8.533-8.533v-34.133h128V469.333z"/>
	<path style="fill:#231F20;" d="M256,110.933c14.14,0,25.6-11.46,25.6-25.6s-11.46-25.6-25.6-25.6c-14.14,0-25.6,11.46-25.6,25.6
		S241.86,110.933,256,110.933z M256,76.8c4.71,0,8.533,3.823,8.533,8.533c0,4.71-3.823,8.533-8.533,8.533
		c-4.71,0-8.533-3.823-8.533-8.533C247.467,80.623,251.29,76.8,256,76.8z"/>
	<path style="fill:#231F20;" d="M187.733,238.933H51.2c-4.71,0-8.533,3.823-8.533,8.533v153.6c0,4.71,3.823,8.533,8.533,8.533
		h136.533c4.71,0,8.533-3.823,8.533-8.533v-153.6C196.267,242.756,192.444,238.933,187.733,238.933z M179.2,392.533H59.733V256
		H179.2V392.533z"/>
	<rect x="238.933" y="247.467" style="fill:#231F20;" width="34.133" height="17.067"/>
	<rect x="290.133" y="247.467" style="fill:#231F20;" width="153.6" height="17.067"/>
	<rect x="238.933" y="290.133" style="fill:#231F20;" width="204.8" height="17.067"/>
	<rect x="238.933" y="332.8" style="fill:#231F20;" width="204.8" height="17.067"/>
	<rect x="238.933" y="375.467" style="fill:#231F20;" width="204.8" height="17.067"/>
	<path style="fill:#231F20;" d="M85.333,375.467H153.6c4.71,0,8.533-3.823,8.533-8.533c-0.051-15.241-8.252-29.286-21.504-36.821
		c2.893-4.233,4.446-9.25,4.437-14.379V307.2c0-14.14-11.46-25.6-25.6-25.6s-25.6,11.46-25.6,25.6v8.533
		c-0.009,5.129,1.545,10.146,4.437,14.379c-13.252,7.535-21.453,21.581-21.504,36.821C76.8,371.644,80.623,375.467,85.333,375.467z
		 M110.933,315.733V307.2c0-4.71,3.823-8.533,8.533-8.533c4.71,0,8.533,3.823,8.533,8.533v8.533c0,4.71-3.823,8.533-8.533,8.533
		C114.756,324.267,110.933,320.444,110.933,315.733z M119.467,341.333c10.846,0.017,20.514,6.844,24.141,17.067H95.326
		C98.953,348.177,108.621,341.35,119.467,341.333z"/>
</g>
<g>
</g>
<g>
</g>
<g>
</g>
<g>
</g>
<g>
</g>
<g>
</g>
<g>
</g>
<g>
</g>
<g>
</g>
<g>
</g>
<g>
</g>
<g>
</g>
<g>
</g>
<g>
</g>
<g>
</g>
</svg>
