<svg height="480pt" viewBox="0 -60 480 480" width="480pt" xmlns="http://www.w3.org/2000/svg"><path d="m472 112v224c-.027344 8.824219-7.175781 15.972656-16 16h-432c-8.824219-.027344-15.972656-7.175781-16-16v-224c.027344-8.824219 7.175781-15.972656 16-16h120v16h192v-16h120c8.824219.027344 15.972656 7.175781 16 16zm0 0" fill="#ff967b"/><path d="m304 64h-27.28125c2.160156-5.058594 3.277344-10.5 3.28125-16 0-22.089844-17.910156-40-40-40s-40 17.910156-40 40c.003906 5.5 1.121094 10.941406 3.28125 16h-27.28125c-17.671875 0-32 14.328125-32 32v16h192v-16c0-17.671875-14.328125-32-32-32zm-64-24c4.417969 0 8 3.582031 8 8s-3.582031 8-8 8-8-3.582031-8-8 3.582031-8 8-8zm0 0" fill="#d1d3d4"/><path d="m280 144h160v176h-160zm0 0" fill="#ffda44"/><path d="m384 192c0 13.253906-10.746094 24-24 24s-24-10.746094-24-24 10.746094-24 24-24 24 10.746094 24 24zm0 0" fill="#a7a9ac"/><path d="m392 232c0-8.835938-7.164062-16-16-16h-32c-8.835938 0-16 7.164062-16 16v64h64zm0 0" fill="#a7a9ac"/><path d="m456 88h-112.800781c-3.847657-18.597656-20.207031-31.953125-39.199219-32h-16.71875c.480469-2.640625.722656-5.316406.71875-8 0-26.507812-21.492188-48-48-48s-48 21.492188-48 48c-.003906 2.683594.238281 5.359375.71875 8h-16.71875c-18.992188.046875-35.351562 13.402344-39.199219 32h-112.800781c-13.238281.039062-23.9609375 10.761719-24 24v224c.0390625 13.238281 10.761719 23.960938 24 24h432c13.238281-.039062 23.960938-10.761719 24-24v-224c-.039062-13.238281-10.761719-23.960938-24-24zm-304 8c.039062-13.238281 10.761719-23.960938 24-24h27.28125c.539062-.058594 1.074219-.167969 1.597656-.320312 1.546875-.246094 2.976563-.972657 4.082032-2.078126.292968-.355468.558593-.730468.800781-1.121093.367187-.429688.664062-.917969.878906-1.441407.375-.855468.566406-1.78125.558594-2.71875 0-.160156.082031-.242187.082031-.320312-.042969-.433594-.121094-.863281-.242188-1.28125-.085937-.621094-.21875-1.238281-.398437-1.839844-1.738281-4.070312-2.636719-8.453125-2.640625-12.878906 0-17.671875 14.328125-32 32-32s32 14.328125 32 32c-.003906 4.425781-.902344 8.808594-2.640625 12.878906-.171875.578125-.304687 1.167969-.398437 1.761719-.121094.445313-.199219.898437-.242188 1.359375 0 .078125.082031.160156.082031.320312-.007812.9375.183594 1.863282.558594 2.71875.199219.507813.496094.972657.878906 1.359376.222657.429687.488281.832031.800781 1.203124 1.496094 1.523438 3.542969 2.390626 5.679688 2.398438h27.28125c13.238281.039062 23.960938 10.761719 24 24v8h-176zm312 240c0 4.417969-3.582031 8-8 8h-432c-4.417969 0-8-3.582031-8-8v-224c0-4.417969 3.582031-8 8-8h112v8c0 4.417969 3.582031 8 8 8h192c4.417969 0 8-3.582031 8-8v-8h112c4.417969 0 8 3.582031 8 8zm0 0"/><path d="m440 136h-160c-4.417969 0-8 3.582031-8 8v176c0 4.417969 3.582031 8 8 8h160c4.417969 0 8-3.582031 8-8v-176c0-4.417969-3.582031-8-8-8zm-8 176h-144v-160h144zm0 0"/><path d="m240 24c-13.253906 0-24 10.746094-24 24s10.746094 24 24 24 24-10.746094 24-24c-.039062-13.238281-10.761719-23.960938-24-24zm0 32c-4.417969 0-8-3.582031-8-8s3.582031-8 8-8 8 3.582031 8 8-3.582031 8-8 8zm0 0"/><path d="m240 152h-192c-4.417969 0-8 3.582031-8 8s3.582031 8 8 8h192c4.417969 0 8-3.582031 8-8s-3.582031-8-8-8zm0 0"/><path d="m240 280h-192c-4.417969 0-8 3.582031-8 8s3.582031 8 8 8h192c4.417969 0 8-3.582031 8-8s-3.582031-8-8-8zm0 0"/><path d="m240 216h-192c-4.417969 0-8 3.582031-8 8s3.582031 8 8 8h192c4.417969 0 8-3.582031 8-8s-3.582031-8-8-8zm0 0"/><path d="m386.160156 210.320312c3.800782-5.351562 5.84375-11.753906 5.839844-18.320312 0-17.671875-14.328125-32-32-32s-32 14.328125-32 32c-.003906 6.566406 2.039062 12.96875 5.839844 18.320312-8.421875 3.9375-13.816406 12.382813-13.839844 21.679688v64c0 4.417969 3.582031 8 8 8h64c4.417969 0 8-3.582031 8-8v-64c-.023438-9.296875-5.417969-17.742188-13.839844-21.679688zm-26.160156-34.320312c8.835938 0 16 7.164062 16 16s-7.164062 16-16 16-16-7.164062-16-16c.027344-8.824219 7.175781-15.972656 16-16zm24 112h-48v-56c0-4.417969 3.582031-8 8-8h32c4.417969 0 8 3.582031 8 8zm0 0"/></svg>