<svg height="480pt" viewBox="0 -60 480 480" width="480pt" xmlns="http://www.w3.org/2000/svg" xmlns:xlink="http://www.w3.org/1999/xlink"><linearGradient id="a"><stop offset="0" stop-color="#fff33b"/><stop offset=".014" stop-color="#fee72e"/><stop offset=".042" stop-color="#fed51b"/><stop offset=".07" stop-color="#fdca10"/><stop offset=".1" stop-color="#fdc70c"/><stop offset=".4" stop-color="#f3903f"/><stop offset=".8" stop-color="#ed683c"/><stop offset="1" stop-color="#e93e3a"/></linearGradient><linearGradient id="b" gradientUnits="userSpaceOnUse" x1="240" x2="240" xlink:href="#a" y1="-58.381392" y2="462.890608"/><linearGradient id="c" gradientUnits="userSpaceOnUse" x1="360" x2="360" xlink:href="#a" y1="-58.381392" y2="462.890608"/><linearGradient id="d" gradientUnits="userSpaceOnUse" x1="144" x2="144" xlink:href="#a" y1="-58.381392" y2="462.890608"/><path d="m456 88.28125h-112.800781c-3.824219-18.613281-20.199219-31.976562-39.199219-32h-16.71875c3.300781-18.859375-4.917969-37.878906-20.917969-48.394531-16.003906-10.515625-36.722656-10.515625-52.726562 0-16 10.515625-24.21875 29.535156-20.917969 48.394531h-16.71875c-19 .023438-35.375 13.386719-39.199219 32h-112.800781c-13.253906 0-24 10.746094-24 24v224c0 13.257812 10.746094 24 24 24h432c13.253906 0 24-10.742188 24-24v-224c0-13.253906-10.746094-24-24-24zm-280-16h27.289062c.542969-.054688 1.078126-.164062 1.597657-.328125 1.53125-.273437 2.949219-.992187 4.074219-2.070313.578124-.84375 1.140624-1.695312 1.6875-2.558593.34375-.878907.53125-1.8125.550781-2.753907 0-.105468.058593-.183593.058593-.289062-.054687-.4375-.144531-.871094-.265624-1.292969-.054688-.625-.179688-1.238281-.375-1.832031-1.734376-4.070312-2.625-8.449219-2.617188-12.875 0-17.671875 14.328125-32 32-32s32 14.328125 32 32c-.003906 4.421875-.898438 8.800781-2.640625 12.867188-.1875.578124-.3125 1.179687-.367187 1.789062-.128907.441406-.21875.890625-.273438 1.34375 0 .105469.058594.183594.058594.28125.019531.945312.210937 1.878906.558594 2.761719.546874.863281 1.109374 1.714843 1.6875 2.558593 1.5 1.53125 3.554687 2.394532 5.695312 2.398438h27.28125c13.253906 0 24 10.746094 24 24v8h-176v-8c0-13.253906 10.746094-24 24-24zm288 264c0 4.417969-3.582031 8-8 8h-432c-4.417969 0-8-3.582031-8-8v-224c0-4.417969 3.582031-8 8-8h112v8c0 4.417969 3.582031 8 8 8h192c4.417969 0 8-3.582031 8-8v-8h112c4.417969 0 8 3.582031 8 8zm0 0" fill="url(#b)"/><path d="m440 136.28125h-160c-4.417969 0-8 3.582031-8 8v176c0 4.417969 3.582031 8 8 8h160c4.417969 0 8-3.582031 8-8v-176c0-4.417969-3.582031-8-8-8zm-8 176h-144v-160h144zm0 0" fill="url(#c)"/><path d="m240 72.28125c13.253906 0 24-10.742188 24-24 0-13.253906-10.746094-24-24-24s-24 10.746094-24 24c0 13.257812 10.746094 24 24 24zm0-32c4.417969 0 8 3.582031 8 8s-3.582031 8-8 8-8-3.582031-8-8 3.582031-8 8-8zm0 0" fill="url(#b)"/><g fill="url(#d)"><path d="m240 152.28125h-192c-4.417969 0-8 3.582031-8 8s3.582031 8 8 8h192c4.417969 0 8-3.582031 8-8s-3.582031-8-8-8zm0 0"/><path d="m240 280.28125h-192c-4.417969 0-8 3.582031-8 8s3.582031 8 8 8h192c4.417969 0 8-3.582031 8-8s-3.582031-8-8-8zm0 0"/><path d="m240 216.28125h-192c-4.417969 0-8 3.582031-8 8s3.582031 8 8 8h192c4.417969 0 8-3.582031 8-8s-3.582031-8-8-8zm0 0"/></g><path d="m328 304.28125h64c4.417969 0 8-3.582031 8-8v-64c-.03125-9.292969-5.425781-17.730469-13.847656-21.664062 9.371094-13.289063 7.285156-31.496094-4.851563-42.320313s-30.464843-10.824219-42.601562 0-14.222657 29.03125-4.851563 42.320313c-8.421875 3.933593-13.816406 12.371093-13.847656 21.664062v64c0 4.417969 3.582031 8 8 8zm56-16h-48v-56c0-4.417969 3.582031-8 8-8h32c4.417969 0 8 3.582031 8 8zm-24-112c8.835938 0 16 7.164062 16 16 0 8.839844-7.164062 16-16 16s-16-7.160156-16-16c0-8.835938 7.164062-16 16-16zm0 0" fill="url(#c)"/></svg>