<?xml version="1.0"?>
<svg xmlns="http://www.w3.org/2000/svg" xmlns:xlink="http://www.w3.org/1999/xlink" version="1.1" id="Capa_1" x="0px" y="0px" viewBox="0 0 261.02 261.02" style="enable-background:new 0 0 261.02 261.02;" xml:space="preserve" width="512px" height="512px" class=""><g><g>
	<path d="M260.869,120.428c-14.066-29.975-32.439-59.455-52.257-86.026c0.213-1.088-0.364-2.345-1.793-2.317   c-3.795,0.074-7.588,0.084-11.381,0.117c0.24-2.385,0.446-4.773,0.647-7.161c0.199-2.364,0.651-4.807,0.128-7.135   c-0.193-0.859-0.929-1.117-1.625-0.987c-0.138-0.817-0.702-1.582-1.749-1.665c-8.697-0.699-17.657-1.251-26.303,0.181   c-0.1,0.017-0.124,0.09-0.202,0.124c-0.434,0.112-0.804,0.43-0.93,1.063c-0.559,2.809-0.457,5.753-0.508,8.611   c-0.041,2.282-0.378,4.799,0.514,6.926c-37.859-0.46-75.677-2.028-113.536-1.804c-0.854,0.005-1.253,0.619-1.234,1.247   C34.415,61.953,16.809,91.479,0.195,121.604c-0.609,1.103,0.315,2.063,1.27,2.066c0.207,0.19,0.474,0.329,0.835,0.342   c6.082,0.215,12.171,0.353,18.257,0.521c-1.538,39.228,0.387,78.79,1.995,117.989c0.037,0.919,0.644,1.448,1.342,1.624   c0.061,0.593,0.471,1.155,1.26,1.209c33.58,2.294,67.734,0.502,101.359-0.306c35.215-0.846,70.543-1.039,105.72-2.827   c0.462-0.023,0.808-0.205,1.088-0.443c0.003,0.035,0.005,0.07,0.008,0.104c0.14,1.575,2.411,1.618,2.483,0   c1.724-38.635-0.228-77.543,0.531-116.233c0-0.027-0.013-0.045-0.013-0.072c7.527,0.014,15.054,0.028,22.576,0.074   c1.876,0.011,2.235-2.288,1.122-3.239C260.748,122.159,261.298,121.343,260.869,120.428z M168.291,25.819   c0.152-2.704,0.46-5.527,0.205-8.234c8.077,0.802,16.249,0.789,24.344,1.439c0.092,0.007,0.156-0.026,0.241-0.03   c-0.409,1.954-0.299,4.077-0.348,6.048c-0.059,2.396-0.113,4.794-0.132,7.19c-8.421,0.053-16.84,0.051-25.256-0.043   C168.308,30.273,168.171,27.947,168.291,25.819z M114.507,239.911c1.987-22.823,2.652-46.863,0.813-69.73   c9.444,0.019,18.885-0.2,28.33-0.003c-0.341,22.875,0.78,46.408,2.378,69.195C135.52,239.549,125.015,239.674,114.507,239.911z    M232.235,238.576c-27.536-0.013-55.208,0.295-82.898,0.74c0.861-23.608-0.003-48.668-3.468-72.023   c-0.085-0.574-0.537-0.777-1.005-0.766c-0.26-0.147-0.556-0.253-0.923-0.261c-9.884-0.215-19.769-0.008-29.58,1.255   c-0.585-0.302-1.323-0.247-1.808,0.206c-0.02,0.003-0.04,0.004-0.06,0.007c-1.08,0.154-1.11,1.473-0.469,2.109   c-1.197,23.166-0.941,46.943-0.407,70.138c-28.585,0.659-57.149,1.506-85.55,2.677c0.002-0.05,0.024-0.085,0.023-0.138   c-1.622-39.291-1.348-78.64-2.945-117.916c69.664,1.844,139.574,0.872,209.289,0.959c-0.002,0.031-0.018,0.053-0.019,0.085   c-0.036,1.967-0.069,3.957-0.104,5.933c-16.086,1.011-32.171,2.266-48.232,3.619c-1.299,0.109-1.335,2.117,0,2.054   c16.063-0.76,32.136-1.622,48.18-2.723c-0.059,3.398-0.119,6.787-0.178,10.188c-14.858-0.598-30.045,1.084-44.818,2.536   c-1.206,0.118-1.237,2.003,0,1.912c14.903-1.108,29.9-1.01,44.779-2.163c-0.055,3.212-0.115,6.404-0.168,9.617   c-0.209-0.088-0.449-0.135-0.74-0.074c-5.943,1.226-11.479,2.367-17.602,2.019c-1.346-0.077-1.307,1.947,0,2.072   c5.941,0.569,12.599,0.386,18.219-1.852c0.034-0.014,0.054-0.038,0.086-0.053c-0.048,3.025-0.119,6.027-0.158,9.054   c-4.96,1.142-9.415,2.142-14.704,1.245c-1.16-0.197-1.678,1.545-0.494,1.792c4.751,0.987,10.42,1.236,15.161-0.489   c-0.028,2.339-0.081,4.673-0.099,7.013c-6.058,0.978-11.704,1.922-17.992,1.312c-0.883-0.085-1.096,1.417-0.211,1.561   c5.742,0.94,12.425,1.22,18.191-0.487c-0.019,3.093-0.05,6.186-0.046,9.279c-6.812-0.53-14.461,0.856-21.097,1.431   c-1.194,0.103-1.237,1.918,0,1.894c6.633-0.13,14.406,0.462,21.103-0.775c0.01,2.39-0.012,4.781,0.016,7.169   c-0.176-0.418-0.558-0.728-1.175-0.682c-16.835,1.25-33.662,2.996-50.446,4.802c-1.075,0.115-1.118,1.785,0,1.715   c16.819-1.065,33.67-2.198,50.446-3.819c0.621-0.06,1.016-0.455,1.189-0.923c0.044,3.375,0.04,6.755,0.131,10.124   c-0.094-0.036-0.158-0.119-0.268-0.123c-16.614-0.636-33.855,1.546-50.434,2.827c-0.905,0.07-0.931,1.451,0,1.429   c16.706-0.381,34.15,0.036,50.705-2.256c0.026-0.004,0.03-0.029,0.055-0.034c0.064,2.141,0.113,4.283,0.199,6.421   c-0.162-0.121-0.347-0.219-0.602-0.186c-16.894,2.16-33.302,4.537-50.38,4.728c-0.842,0.009-0.837,1.269,0,1.304   c16.723,0.698,34.35,0.142,50.66-3.962c0.18-0.045,0.271-0.183,0.384-0.299c0.275,6.35,0.617,12.691,1.135,19.004   C232.863,238.669,232.583,238.576,232.235,238.576z M3.692,121.358c18.3-28.416,34.418-58.383,50.353-88.164   c0.013-0.024,0.009-0.047,0.021-0.071c50.359,5.105,102.105,3.751,152.629,2.823c1.111,1.808,2.201,3.625,3.3,5.439   c-6.511-0.442-13.058-0.503-19.578-0.669c-3.47-0.088-8.878-1.585-11.728,0.881c-0.384,0.332-0.34,0.861-0.164,1.273   c0.354,0.831,0.579,0.955,1.457,1.133c0.409,0.083,0.865-0.052,1.078-0.439c0.072-0.131,0.144-0.262,0.216-0.392   c0.165-0.301,0.088-0.599-0.061-0.86c1.754,0.24,4.652,0.559,5.31,0.586c3.027,0.125,6.056,0.245,9.083,0.367   c5.252,0.213,10.514,0.453,15.771,0.399c0.894,1.479,1.795,2.954,2.689,4.433c-9.891-0.583-20.185-0.34-29.97,0.278   c-1.137,0.072-1.139,1.697,0,1.769c10.233,0.646,21.03,0.897,31.334,0.201c1.477,2.445,2.968,4.883,4.445,7.328   c-8.72-0.053-17.689,1.313-26.312,2.053c-1.495,0.128-1.524,2.463,0,2.358c9.074-0.625,18.639-0.621,27.645-2.215   c1.949,3.228,3.925,6.442,5.868,9.673c-10.782-0.131-21.712,1.116-32.47,1.813c-1.252,0.081-1.273,2.015,0,1.965   c10.813-0.426,21.857-0.321,32.606-1.583c0.415-0.049,0.669-0.285,0.841-0.568c3.974,6.612,7.947,13.225,11.912,19.84   c-0.041-0.008-0.063-0.045-0.108-0.047c-13.518-0.558-27.453,1.706-41.046,1.884c-1.024,0.013-1.024,1.566,0,1.59   c13.32,0.301,28.228,1.235,41.272-1.807c0.321-0.075,0.463-0.292,0.533-0.536c2.201,3.671,4.402,7.343,6.607,11.012   c-0.054,0.02-0.107-0.009-0.161,0.02c-0.208,0.115-0.416,0.23-0.624,0.345c-0.563,0.311-0.463,1.259,0.183,1.404   c-7.601-1.711-17.522,0.295-25.295,0.127c-8.239-0.179-16.447-0.735-24.645-1.564c-1.041-0.105-1.002,1.475,0,1.608   c11.344,1.506,22.706,2.399,34.154,2.445c4.838,0.019,14.047,1.787,17.99-1.674c0.006-0.005,0.005-0.017,0.011-0.022   c1.716,2.854,3.419,5.713,5.14,8.564c-0.149-0.064-0.313-0.113-0.505-0.12c-21.323-0.833-42.827-0.223-64.137,0.806   c-1.165,0.056-1.18,1.838,0,1.822c21.391-0.287,42.748,0.071,64.137,0.051c0.843-0.001,1.265-0.622,1.285-1.266   c1.242,2.056,2.474,4.118,3.721,6.172c0.042,0.07,0.098,0.103,0.144,0.161C173.754,121.752,88.529,119.162,3.692,121.358z" data-original="#1D1D1B" class="active-path" data-old_color="#87CFF0" fill="#8ED2F0"/>
	<path d="M85.402,170.107c-0.045-1.046-0.782-1.61-1.584-1.738c0.066-0.744-0.283-1.543-1.078-1.651   c-9.749-1.317-20.385-0.58-30.271,0.161c-0.415-0.16-0.864-0.152-1.222,0.091c-0.223,0.017-0.451,0.034-0.673,0.05   c-1.432,0.108-1.465,1.966-0.187,2.271c-1.857,8.698-0.882,18.764-0.549,27.49c0.043,1.119,1.165,1.405,1.891,0.972   c0.047,0.007,0.062,0.047,0.114,0.05c10.076,0.501,20.887,1.012,30.894-0.376c0.148-0.02,0.255-0.078,0.372-0.127   c0.63,0.053,1.317-0.312,1.399-1.137C85.368,187.479,85.779,178.832,85.402,170.107z M52.424,195.568   c0.562-8.422,2.031-17.575,1.23-25.959c9.22,0.684,19.01,1.255,28.095,0.159c-0.018,0.115-0.064,0.21-0.062,0.339   c0.134,8.09,0.332,16.182,0.356,24.273C72.39,193.572,62.066,194.596,52.424,195.568z" data-original="#1D1D1B" class="active-path" data-old_color="#87CFF0" fill="#8ED2F0"/>
	<path d="M208.139,170.1c-0.037-0.477-0.236-0.833-0.501-1.098c0.09-0.141,0.183-0.279,0.229-0.456   c0.054-0.207,0.108-0.413,0.161-0.62c0.294-1.128-0.557-2.327-1.757-2.307c-10.176,0.171-21.516-0.843-31.471,1.412   c-0.316,0.072-0.492,0.308-0.603,0.579c-0.466,0.106-0.898,0.365-1.017,0.869c-1.175,4.955-0.776,10.252-0.594,15.315   c0.16,4.431,0.221,9.144,1.397,13.467c-0.133,0.448-0.016,0.977,0.356,1.323c0.043,0.127,0.059,0.263,0.104,0.389   c0.282,0.784,1.654,1.006,1.824,0.003c9.365,0.471,19.378,0.985,28.648,0.064c0.363-0.036,0.671-0.21,0.921-0.446   c0.002,0.03,0.005,0.061,0.007,0.09c0.108,1.468,2.248,1.497,2.305,0C208.5,189.251,208.881,179.515,208.139,170.1z    M205.327,195.986c-9.191-1.413-19.488-0.792-28.812,0.392c0.29-4.165-0.166-8.427-0.26-12.585   c-0.11-4.862,0.298-9.83-0.401-14.644c9.211,1.514,19.357,0.461,28.718,0.169c0.105,0.092,0.244,0.152,0.374,0.22   c-0.063,0.171-0.12,0.347-0.13,0.561c-0.367,8.585,0.212,17.391,0.84,26.003C205.55,196.061,205.459,196.006,205.327,195.986z" data-original="#1D1D1B" class="active-path" data-old_color="#87CFF0" fill="#8ED2F0"/>
	<path d="M232.451,79.941c-8.821,0.146-17.681,1.081-26.475,1.761c-3.027,0.234-9.776-0.93-11.656,1.992   c-0.17,0.265-0.141,0.755,0.124,0.962l0.444,0.346c0.296,0.231,0.797,0.352,1.079,0c0.085-0.107,0.171-0.213,0.256-0.32   c0.288-0.359,0.201-0.785-0.041-1.044c2.16,0.074,7.263,0.374,8.4,0.311c3.251-0.177,6.504-0.35,9.754-0.542   c6.031-0.356,12.113-0.575,18.115-1.269C233.817,81.981,233.9,79.917,232.451,79.941z" data-original="#1D1D1B" class="active-path" data-old_color="#87CFF0" fill="#8ED2F0"/>
</g></g> </svg>
