<?xml version="1.0"?>
<svg xmlns="http://www.w3.org/2000/svg" xmlns:xlink="http://www.w3.org/1999/xlink" version="1.1" id="Capa_1" x="0px" y="0px" viewBox="0 0 512.001 512.001" style="enable-background:new 0 0 512.001 512.001;" xml:space="preserve" width="512px" height="512px" class=""><g><g>
	<g>
		<path d="M376,127.499v-30c0.002-28.948-23.549-52.5-52.498-52.5c-28.949,0-52.5,23.552-52.5,52.5v30    c0,15.626,6.87,29.67,17.739,39.296c-8.061,3.072-14.313,9.829-16.691,18.204h-17.096c-3.274-11.528-13.889-20-26.452-20h-50    c-15.164,0-27.5,12.337-27.5,27.5v67.259c-9.693,11.989-15,26.936-15,42.406v50.335c0,4.143,3.358,7.5,7.5,7.5h22.5v134.5    c0,3.229,2.066,6.095,5.128,7.115l30,10c0.787,0.262,1.586,0.387,2.373,0.387c3.14,0,6.066-1.987,7.114-5.13    c1.31-3.93-0.814-8.178-4.744-9.487l-24.872-8.29V359.999h45v134.5c0,3.229,2.066,6.095,5.128,7.115l30,10    c0.77,0.257,1.571,0.385,2.372,0.385c0.801,0,1.602-0.128,2.372-0.385l30-10c3.063-1.021,5.128-3.887,5.128-7.115V339.923    c6.824,3.251,14.452,5.076,22.5,5.076c8.048,0,15.676-1.825,22.5-5.076v149.171l-24.872,8.29c-3.93,1.31-6.053,5.558-4.744,9.487    c1.048,3.143,3.974,5.13,7.114,5.13c0.786,0,1.586-0.125,2.373-0.387l30-10c3.063-1.021,5.128-3.887,5.128-7.115V329.191    c9.27-9.473,15-22.423,15-36.692v-100c0-11.727-7.381-21.757-17.739-25.704C369.13,157.169,376,143.125,376,127.499z     M286.002,97.499c0-20.678,16.822-37.5,37.5-37.5c20.678,0,37.5,16.822,37.5,37.5v2.5h-15.139c-5.652-6.325-13.746-10-22.361-10    s-16.708,3.675-22.361,10h-15.139V97.499z M256.002,199.999h15v25.732c-4.992,0.378-10.008,0.378-15,0V199.999z M166.002,192.499    c0-6.893,5.607-12.5,12.5-12.5h50c6.893,0,12.5,5.607,12.5,12.5v30.932c-17.308-4.03-33.732-12.771-47.197-26.235    c-2.929-2.928-7.678-2.928-10.606,0c-2.929,2.93-2.929,7.678,0,10.607c16.399,16.398,36.608,26.717,57.803,30.97v16.226h-75    V192.499z M151.002,344.999v-42.835c0-11.686,3.905-22.981,11.038-32.165h78.962v75H151.002z M286.002,489.093l-22.5,7.501    l-22.5-7.5V359.999h7.5c4.142,0,7.5-3.357,7.5-7.5V240.76c2.497,0.164,4.998,0.252,7.5,0.252s5.003-0.088,7.5-0.252v51.739    c0,14.27,5.73,27.22,15,36.692V489.093z M323.503,329.999c-18.11,0-33.262-12.904-36.746-30h73.491    C356.764,317.095,341.613,329.999,323.503,329.999z M361.002,192.499v92.5h-75v-46.227c21.195-4.253,41.404-14.571,57.803-30.97    c2.929-2.93,2.929-7.678,0-10.607c-2.928-2.928-7.677-2.928-10.606,0c-13.464,13.465-29.889,22.205-47.197,26.235v-30.931    c0-6.893,5.607-12.5,12.5-12.5h50C355.395,179.999,361.002,185.606,361.002,192.499z M323.502,164.999    c-20.678,0-37.5-16.822-37.5-37.5v-12.5h18.792c2.502,0,4.84-1.248,6.232-3.328c2.797-4.178,7.461-6.672,12.476-6.672    s9.679,2.494,12.476,6.672c1.392,2.08,3.73,3.328,6.232,3.328h18.792v12.5C361.002,148.177,344.18,164.999,323.502,164.999z" data-original="#000000" class="active-path" data-old_color="#1cb0d5" fill="#1cb0d5"/>
	</g>
</g><g>
	<g>
		<path d="M243.727,63.81c-0.205-0.27-0.422-0.531-0.668-0.777c-4.778-5.462-10.622-9.916-17.222-13.031    c4.762-5.313,7.665-12.323,7.665-20.002c0-16.542-13.458-30-30-30s-30,13.458-30,30c0,7.679,2.903,14.689,7.665,20.002    c-6.6,3.115-12.444,7.569-17.194,13.006c-0.274,0.271-0.491,0.533-0.696,0.803c-7.654,9.125-12.275,20.876-12.275,33.689    c0,28.947,23.551,52.499,52.5,52.499c28.949,0,52.5-23.552,52.5-52.5C256.002,84.686,251.381,72.935,243.727,63.81z     M203.502,14.999c8.271,0,15,6.729,15,15s-6.729,15-15,15s-15-6.729-15-15S195.231,14.999,203.502,14.999z M203.502,59.999    c8.673,0,16.662,2.968,23.022,7.931c-13.839,9.42-32.205,9.42-46.044,0C186.84,62.967,194.829,59.999,203.502,59.999z     M203.502,134.999c-20.678,0-37.5-16.822-37.5-37.5c0-6.567,1.702-12.742,4.68-18.116c9.75,7.072,21.284,10.615,32.82,10.615    s23.07-3.543,32.82-10.615c2.978,5.374,4.68,11.549,4.68,18.116C241.002,118.177,224.18,134.999,203.502,134.999z" data-original="#000000" class="active-path" data-old_color="#1cb0d5" fill="#1cb0d5"/>
	</g>
</g></g> </svg>
