<?xml version="1.0"?>
<svg xmlns="http://www.w3.org/2000/svg" height="512px" viewBox="-6 0 512 512" width="512px"><g><path d="m299.0625 241.757812 50.964844-50.964843v-85.238281c0-58.203126-47.351563-105.554688-105.554688-105.554688s-105.558594 47.351562-105.558594 105.554688v85.238281l50.96875 50.964843h-103.285156v-140.351562l-34.574218-34.574219h-52.023438v228.449219l33.070312 33.070312h77.863282v183.648438h330.671875v-223.941406l-46.300781-46.300782zm-145.148438-57.179687v-79.023437c0-49.933594 40.625-90.554688 90.558594-90.554688s90.554688 40.621094 90.554688 90.554688v79.023437l-57.175782 57.179687h-66.757812zm105.726563 102.515625h-30.335937v-30.335938h30.335937zm-45.335937-30.335938v45.335938h1.757812l-7.054688 47.296875-40.394531-92.632813zm212.300781 240.242188h-58.59375v-144.148438h-15v25.738282c-11.414063-22.074219-40.3125-27.910156-59.398438-11.765625-6.925781-5.859375-15.8125-9.203125-25.019531-9.203125-21.320312 0-38.664062 17.34375-38.664062 38.664062 0 26.109375 42.589843 59.800782 63.679687 74.808594 19.328125-13.753906 48.722656-37.691406 59.402344-58.925781v84.832031h-227.078125v-183.648438h-86.648438l-24.285156-24.28125v-207.238281h30.8125l25.785156 25.789063v149.136718h80.648438l58.863281 134.980469 13.75-5.996093c-2.808594-6.441407-1.828125-4.191407-4.550781-10.4375l10.917968-73.210938h26.488282l6.597656 44.230469 14.835938-2.210938-6.265626-42.019531h1.757813v-45.335938h45.691406l-38.953125 89.320313 13.75 5.996094 41.566406-95.316407h52.398438l37.511719 37.511719zm-84.300781-100.714844c0 14.742188-28.25 40.984375-48.695313 56.3125-20.4375-15.316406-48.679687-41.546875-48.679687-56.3125 0-13.046875 10.617187-23.664062 23.664062-23.664062 7.558594 0 14.484375 3.484375 19.003906 9.5625l6.019532 8.085937 6.019531-8.085937c4.519531-6.078125 11.445312-9.5625 19.003906-9.5625 13.046875 0 23.664063 10.617187 23.664063 23.664062zm0 0" data-original="#000000" class="active-path" data-old_color="#1cb0d5" fill="#1cb0d5"/><path d="m174.617188 314.167969h-27.6875v-46.746094h-15v61.746094h27.6875v53.039062l34.839843 34.839844 10.609375-10.605469-30.449218-30.445312zm0 0" data-original="#000000" class="active-path" data-old_color="#1cb0d5" fill="#1cb0d5"/><path d="m342.015625 314.167969h-27.691406v31.390625h15v-16.390625h27.691406v-61.746094h-15zm0 0" data-original="#000000" class="active-path" data-old_color="#1cb0d5" fill="#1cb0d5"/><path d="m359.5 0v96.535156h44.789062v23.820313l36.148438-23.820313h59.5625v-96.535156zm125.5 81.535156h-49.0625l-16.648438 10.972656v-10.972656h-44.789062v-66.535156h110.5zm0 0" data-original="#000000" class="active-path" data-old_color="#1cb0d5" fill="#1cb0d5"/><path d="m455.9375 34.824219-10.792969-10.414063-21.886719 22.6875-8.429687-10.59375-11.738281 9.335938 19.082031 23.988281zm0 0" data-original="#000000" class="active-path" data-old_color="#1cb0d5" fill="#1cb0d5"/><path d="m298.425781 435.929688-9.621093-11.511719c2.992187-2.496094 5.875-5.015625 8.570312-7.484375 17.527344-16.039063 20.277344-23.605469 20.304688-23.679688l14.1875 4.863282c-1.136719 3.324218-5.792969 12.886718-24.367188 29.886718-2.859375 2.617188-5.914062 5.28125-9.074219 7.925782zm0 0" data-original="#000000" class="active-path" data-old_color="#1cb0d5" fill="#1cb0d5"/><path d="m325.027344 139.667969h-15v-34.113281c0-19.726563-8.796875-38.234376-24.136719-50.773438l9.496094-11.609375c18.835937 15.398437 29.640625 38.136719 29.640625 62.386719zm-46.453125-90.078125c-3.824219-2.339844-7.898438-4.292969-12.109375-5.796875l5.046875-14.125c5.179687 1.851562 10.191406 4.25 14.894531 7.128906zm-20.738281-8.222656c-4.367188-.90625-8.863282-1.367188-13.363282-1.367188v-15c5.523438 0 11.046875.566406 16.414063 1.683594zm0 0" data-original="#000000" class="active-path" data-old_color="#1cb0d5" fill="#1cb0d5"/><path d="m416.605469 478.796875h-15v-111.929687h15zm0-121.929687h-15v-15h15zm0-25h-15v-15h15zm0 0" data-original="#000000" class="active-path" data-old_color="#1cb0d5" fill="#1cb0d5"/></g> </svg>
