<svg xmlns="http://www.w3.org/2000/svg" viewBox="0 0 36.25 35.42"><defs><style>.cls-1{fill:#444;}</style></defs><title>investing</title><g id="Layer_2" data-name="Layer 2"><g id="Layer_1-2" data-name="Layer 1"><path class="cls-1" d="M17.81,29.94H.7a.7.7,0,0,1,0-1.4H17.81a.7.7,0,0,1,0,1.4Z"/><path class="cls-1" d="M7.61,29.73a.7.7,0,0,1-.7-.7V14.87H2.56V29a.7.7,0,0,1-1.4,0V14.17a.7.7,0,0,1,.7-.7H7.61a.7.7,0,0,1,.7.7V29A.7.7,0,0,1,7.61,29.73Z"/><path class="cls-1" d="M16.76,29.73a.7.7,0,0,1-.7-.7V8.42H11.7V29a.7.7,0,1,1-1.4,0V7.72A.7.7,0,0,1,11,7h5.76a.7.7,0,0,1,.7.7V29A.7.7,0,0,1,16.76,29.73Z"/><path class="cls-1" d="M20.15,19.69a.7.7,0,0,1-.7-.7V.7a.7.7,0,0,1,.7-.7H25.9a.7.7,0,0,1,.7.7V16.18a.7.7,0,0,1-1.4,0V1.4H20.85V19A.7.7,0,0,1,20.15,19.69Z"/><path class="cls-1" d="M26.48,35.42a9.78,9.78,0,1,1,9.78-9.78A9.79,9.79,0,0,1,26.48,35.42Zm0-18.16a8.38,8.38,0,1,0,8.38,8.38A8.39,8.39,0,0,0,26.48,17.26Z"/><path class="cls-1" d="M22.44,29.94A.7.7,0,0,1,22,28.74c.31-.29,1.15-1.18,2.13-2.21C28,22.36,29.16,21.23,29.65,21a.7.7,0,0,1,.56,1.28c-.54.34-3.51,3.48-5.11,5.17-1,1.09-1.84,1.95-2.18,2.27A.7.7,0,0,1,22.44,29.94Z"/><path class="cls-1" d="M29.91,28.82a.7.7,0,0,1-.7-.7V22.38H23.47a.7.7,0,1,1,0-1.4h6.44a.7.7,0,0,1,.7.7v6.44A.7.7,0,0,1,29.91,28.82Z"/></g></g></svg>