<svg xmlns="http://www.w3.org/2000/svg" viewBox="0 0 222.82 193.72">
	<defs><style>.tup--b-cls-1{fill:#5e686d;}.tup--b-cls-2{fill:#995a4d;}.tup--b-cls-3{fill:#8e5349;}.tup--b-cls-4{fill:#f2e1df;}.tup--b-cls-5{fill:#452a24;}.tup--b-cls-6{fill:#efdfca;}.tup--b-cls-7{fill:#f79737;}.tup--b-cls-8{fill:#fee3cf;}.tup--b-cls-9{fill:#999492;}.tup--b-cls-10{fill:#abb9c6;}.tup--b-cls-11{fill:#88959e;}.tup--b-cls-12{fill:#c8915c;}.tup--b-cls-13{fill:#f4caae;}.tup--b-cls-14{fill:#76707c;}.tup--b-cls-15{fill:#ddb199;}.tup--b-cls-16{fill:#bc875b;}.tup--b-cls-17{fill:#e5b4b1;}.tup--b-cls-18{fill:#ff6b06;}.tup--b-cls-19{fill:#db5c05;}.tup--b-cls-20{fill:#7c7684;}.tup--b-cls-21{fill:#e5c3c3;}.tup--b-cls-22{fill:#e2aba6;}.tup--b-cls-23{fill:#ffa378;}.tup--b-cls-24{fill:#ea9475;}.tup--b-cls-25{fill:#384f63;}.tup--b-cls-26{fill:#8c8c8c;}.tup--b-cls-27{fill:#7fdbc9;}.tup--b-cls-28{fill:#f26200;}.tup--b-cls-29{fill:#4a3737;}.tup--b-cls-30{fill:#50719c;}.tup--b-cls-31{fill:#5e85b8;}</style></defs><g id="Layer_2" data-name="Layer 2"><g id="Layer_1-2" data-name="Layer 1"><polygon class="tup--b-cls-1" points="8.73 181.61 8.43 189.49 12.79 191.78 17.88 190.66 19.18 187.19 15.51 180.4 8.73 181.61"/><path class="tup--b-cls-2" d="M17.9,102.62l16.44-3c-.24,10.6-.55,20.93-.9,24.23-.8,7.6,4.54,49,4.54,49l-6.58.08c-1.35-6.83-3.86-13.35-5.26-17.68-8-24.82-4.52-36.3-4.52-36.3A87.79,87.79,0,0,1,17.9,102.62Z"/><path class="tup--b-cls-2" d="M5.05,98.69l17.29-.54c-1.85,10.82-3.73,21.35-4.59,24.68-2,7.66-3.88,51.75-3.88,51.75l-5.41.87c-.35-7.2-2.16-16.91-2.94-21.56C1.09,127.26,6.39,116,6.39,116A90.88,90.88,0,0,1,5.05,98.69Z"/><path class="tup--b-cls-3" d="M26.2,26.63s2-.79,2.47-.42,0,4.85-.47,5.47-2.82.78-2.82.78A21.59,21.59,0,0,0,26.2,26.63Z"/><path class="tup--b-cls-3" d="M20.5,38.39c.42-1.4,2.11-3,3.16-3.93,0,0-5.87,1.2-9.12-.47,0,0-2.37-2.41-2.9-1.23,0,0,1.68,6.57-2.15,9-.83.53,1.36,1.38,1.92,1.94A27.67,27.67,0,0,0,15,46.13,8,8,0,0,0,22,47c.65-.28,2.2-4.81,1.36-5-1.17-.26-1.91.11-2.84-.15C19.86,41.68,20.34,39.51,20.5,38.39Z"/><path class="tup--b-cls-2" d="M12.37,16.33c.08,0,14.44,1,14.64,1.26s.26,9.27.17,10.24-1.12,6.2-1.69,6.95a54.55,54.55,0,0,1-4.77,4.42A6.33,6.33,0,0,1,18.08,39c-.36-.27-6-4.22-6.27-5.38-.14-.51-1.31-6.4-.59-7.92S12.37,16.33,12.37,16.33Z"/><path class="tup--b-cls-2" d="M11.35,25.88s-1.93-1-2.41-.66S8.49,30,8.86,30.71s2.73,1.06,2.73,1.06A21.59,21.59,0,0,1,11.35,25.88Z"/><circle class="tup--b-cls-4" cx="27.28" cy="31.76" r="0.84" transform="translate(-5.81 57.41) rotate(-87.12)"/><circle class="tup--b-cls-4" cx="10.18" cy="30.9" r="0.84" transform="translate(-21.19 39.51) rotate(-87.12)"/><path class="tup--b-cls-5" d="M7.86,18.86c0-.09.09-.17.13-.26.38-1,1.31-4.84,1.49-5.53S9.14,10,9.5,9.22s2-1.12,3.31-1.43,2.33-1.95,3.72-2.21a9.09,9.09,0,0,1,4.56.52c.47.4,3.48-.25,4.44.39S26.85,8.76,27.66,9s2.86.47,3.32,2.09c.09.32.48,2.34,1.1,2.54s1.41,2.05,1,2.28.06,2.49,0,3.24-.71.86-1.95,1.23a2.93,2.93,0,0,0-1.7,1.74h0a10.47,10.47,0,0,1-2.16,6.07s0-7.15-.74-7.87-3.73-.94-5-1c-2.94-.18-4.72,4.24-6.64,7.7a6.11,6.11,0,0,1-3.52,2.8,12,12,0,0,1-2.67-3.89C8.06,24,7.51,19.64,7.86,18.86Z"/><path class="tup--b-cls-2" d="M43.67,101.47a33.71,33.71,0,0,0-1.66-5c.34-.26-7.81-24.64-7.81-24.64C31.18,46.44,29.84,43.57,23,42c-4-.92,3.78,30.72,3.78,30.72l9.28,22.91c.12,0,1.49,6.2,1.49,6.2a11,11,0,0,0-.89,2.67A4.48,4.48,0,0,0,37.72,107c.27.77,1.2.62,1.2.62.25,1,.92.73.92.73.49-.43,2.06-1.51,2.06-1.51C42.69,106.16,43.89,102.95,43.67,101.47Z"/><path class="tup--b-cls-3" d="M39,97.52a36.79,36.79,0,0,0,.88,4.22s-1.35,2-.55,2.88a15.35,15.35,0,0,0,2.45-2.36s-.89,2.61-1,3-1.44,1.22-1.56,1.9c0,0-1-.36-1.09-.91,0,0-.91-1-.88-1.69a19.33,19.33,0,0,1,.67-2.62s-1.37-2.7-.67-4.55C37.21,97.29,38.88,97.6,39,97.52Z"/><path class="tup--b-cls-6" d="M2.16,151.11c.57.26,11.14,1.64,16.11,1.07,1.35-.15,1-28.95,1-28.95,1.11-.16.13,22.3,1,22.14,1.92-.35,18-7,18-7.24.29-1.35-2.06-19.48-4.67-51.46-.32-3.9-2.84-21-4.3-27.26a62.42,62.42,0,0,0-3-9.38c-1-2.78-1-5.31-1.8-7.59-.3-.85-2.53-.58-3.32-.55,0,0,.74,2.63-.12,3.11-3.82,2.12-5,.68-7.56-2.84-2.29-3.09-4.18-1.58-4.18-1.58S-1.95,46.5,2.12,61.18c1.42,5.14-.43,20.36-1.7,42.94C-1,129.1,1.51,150.81,2.16,151.11Zm1.5-99.56c.12-2.91,1-5.3,3.7-5.53l.87-.23C11.4,45.53,12,48.44,12,51.21L11.5,66.3C4.14,68.41,3.66,51.55,3.66,51.55Z"/><rect class="tup--b-cls-7" x="20.77" y="56.95" width="6.27" height="1.39" transform="translate(65.88 103.81) rotate(160.23)"/><polygon class="tup--b-cls-8" points="35.56 75.92 32.15 63.73 39.88 62.56 40.82 75.12 35.56 75.92"/><polygon class="tup--b-cls-9" points="31.46 64.32 31.48 62.71 40.28 61.26 40.86 62.89 31.46 64.32"/><path class="tup--b-cls-2" d="M40.53,66.84c-.38-.51-7.12,1.29-7.12,1.29L33,66.61l-2.24,2.77c-.21-.38-17.49,1.27-17.49,1.27-2.17-11.44.28-15-.79-21.4-.42-2.53-2.59-5.4-5.91-4.06-8.44,3.41,1.06,34.57,1.06,34.57,8,.37,20.79-4.51,20.83-4.61a18.38,18.38,0,0,0,3.09-1.51,22.39,22.39,0,0,0,3.54.48c1.17,0,4.87-.42,5.5-1.86A9.63,9.63,0,0,0,40.53,66.84Z"/><path class="tup--b-cls-2" d="M37.4,168.6s3.87,8,9.58,7.9c2.29,0,4.94-1.75,5.88-1,1.68,1.28-5.67,5.52-8.22,6s-5.93-2.4-8.2-2.16-3.27.89-4.7-.07c-2.41-1.61-.29-8.4-.29-8.4S33.06,167.44,37.4,168.6Z"/><path class="tup--b-cls-10" d="M50,175.62a4.49,4.49,0,0,1,1.58,2.59s-4.3,3.61-6.42,4-5.11-.72-6.59-1.45S41.41,174,41.41,174a26.05,26.05,0,0,0,5.13,1.84A12.64,12.64,0,0,0,50,175.62Z"/><path class="tup--b-cls-11" d="M53.38,176.48s.36-.7.68-.42,1.41,2.41,1.57,2.54-1.15,1.79-3.56,3.28-6,3.42-7.83,3.67-5.29-2.48-5.29-2.48l2.71,3.84L36.06,190l-5-9a12.16,12.16,0,0,1,5.86-1.13c1.42.2,6,2.48,7.7,2.17S53.38,176.48,53.38,176.48Z"/><path class="tup--b-cls-11" d="M7.8,184.24a33,33,0,0,0,.64,5.25c.53,2.27,3.37,3.71,5.09,4.12,1.28.3,4.58.14,5.57-2.74a11.51,11.51,0,0,0,0-4.35s-.78,2.77-3.18,3A7.46,7.46,0,0,1,7.8,184.24Z"/><path class="tup--b-cls-2" d="M13.85,174.32s4.56,12.62,4.06,13.76-4.15,1.66-6.31.68a5.74,5.74,0,0,1-3.66-5.84,56.23,56.23,0,0,1,.66-8c.47-1.92,3-3.61,3-3.61Z"/><path class="tup--b-cls-10" d="M11.29,178.46a7.77,7.77,0,0,0-3.15,1.35s-.64,4.62-.15,6.25,3.62,2.69,3.62,2.69a8.67,8.67,0,0,1,3-2.15c1.5-.48,4.58.58,4.58.58s.5.14-.9-3A55.55,55.55,0,0,0,15.56,179a9.46,9.46,0,0,0-2.79-.62"/><path class="tup--b-cls-12" d="M89.45,138.72S89,174.34,89,175.09c-.06,3.92,5.26,3.71,5.7.9.1-.65,6.27-35.28,6.26-36S93.71,130.7,89.45,138.72Z"/><path class="tup--b-cls-12" d="M109.24,135.65c-.13.21,3.84,37.86,4.15,38.57s5.22,1.75,5.51,0c.12-.73,2.69-34.18,1.83-36.26S114.21,128,109.24,135.65Z"/><path class="tup--b-cls-12" d="M118.89,174.19s-.62,6.22,1,8.31,3.27,5.12,2.68,6.52-4.09,1.81-6.37.38-3.4-2.37-3.41-3.66a42.36,42.36,0,0,1,.39-5.14c.63-3.75.05-6,.24-6.38S118.13,171.78,118.89,174.19Z"/><path class="tup--b-cls-12" d="M89.27,175.59s-14.4,5.59-16.39,5.65-1.47.63.27,1.72,8.25,2.08,10.44,1.69,6.31-2.73,8.28-2.42,2.24,1.47,2.53.19-.55-5.16-.55-5.16C93.62,177.05,92.11,173.34,89.27,175.59Z"/><path class="tup--b-cls-13" d="M88.91,174.33c-.35,0-12.45,6.29-15,6.41s-4.16.15-4.83,1.66,7.44,2.58,8.54,2.8,6.09.59,7.13.11,3.93-2.07,3.93-2.07L88.19,186l5.48.87s1.7-8.92,1.14-11.32c0,0-1.67,1.56-2.46,1.43S91.7,174.69,88.91,174.33Z"/><path class="tup--b-cls-14" d="M76.46,183.86c-6.6-.94-7-2.1-7-2.1a2.33,2.33,0,0,0-.4.62c-.67,1.51,7.44,2.58,8.54,2.8s6.09.59,7.13.11,3.93-2.07,3.93-2.07L88.19,186l5.48.87s.38-2,.72-4.3a12.34,12.34,0,0,0-6.8.27C83.62,184.49,83.06,184.8,76.46,183.86Z"/><path class="tup--b-cls-13" d="M113.25,173.74s3-1.74,5.37.1c.45.36-.07,2.54,3,9.95a31.6,31.6,0,0,1,1.56,4,2.4,2.4,0,0,1-2.86,2.26c-1.63-.43-6.06-2.16-7.55-4.16S113.74,178.84,113.25,173.74Z"/><path class="tup--b-cls-14" d="M112.34,183s-.55,2.15.08,3.36a11.79,11.79,0,0,0,5.7,4.23c2.66.94,4.46.29,5.07-.69s-.15-2.63-.41-3.29c0,0,.62,1.66-.44,2.22a5.82,5.82,0,0,1-4.92,0,8.68,8.68,0,0,1-4.41-3.6A8.39,8.39,0,0,1,112.34,183Z"/><rect class="tup--b-cls-15" x="83.37" y="178.92" width="9.17" height="0.92" transform="translate(-76.08 65.34) rotate(-29.07)"/><rect class="tup--b-cls-15" x="109.37" y="178.32" width="9.67" height="0.97" transform="translate(-65.52 291.56) rotate(-89.54)"/><path class="tup--b-cls-16" d="M84.95,100.29a13.34,13.34,0,0,1,1.34,5.28c0,.7.07.75-.45.78s-.66-1.38-1.1-2.42S83,99.81,84.95,100.29Z"/><path class="tup--b-cls-12" d="M84.85,99.84a18.53,18.53,0,0,1,.47,3.22c-.1,2.18-.07,4.64-.23,6.15-.1.91.54,2.31-.28,2.16a4,4,0,0,1-2.48-1.7c-.89-1.29-2.37-2.31-2.71-2.88-.53-.91.07-5.9.93-7.62C81.05,98.21,83.25,96.09,84.85,99.84Z"/><path class="tup--b-cls-17" d="M86.12,41.93c-2,3.79-3.74,24.94-4.65,29.51s-2.22,6.12-1.88,29.92l6.17-1C90,80.52,89.5,76.53,90.1,73.71a2.55,2.55,0,0,0,0-.68c1.3-5.23,4.1-24.94,4.28-26.76C94.77,42.7,88.58,37.36,86.12,41.93Z"/><path class="tup--b-cls-18" d="M123.05,110s0,0,0,0A183.69,183.69,0,0,0,119.86,82a12.34,12.34,0,0,0-.32-1.69,5.31,5.31,0,0,0-.18-.67c-2.76-10.43-3.12-9.44-3.12-9.44l-18.92-1S95,72,93.64,78.39a4.81,4.81,0,0,0-.38,1.1A184.93,184.93,0,0,0,89,109.11s0,0,0,0c-1.34,19.28-5.23,24.45-1,30.31s33.87,3.36,33.87,3.36A189.19,189.19,0,0,0,123.05,110Z"/><path class="tup--b-cls-19" d="M111.69,87c-.06,2.11,1.25,3.67,2.61,5.14a12.26,12.26,0,0,0,4.38,3.37c.41.16.58-.5.18-.66A10.91,10.91,0,0,1,115,91.92c-1.32-1.4-2.71-2.86-2.65-4.92,0-.44-.67-.43-.69,0Z"/><path class="tup--b-cls-12" d="M90.19,39a48.78,48.78,0,0,1,7.67-3.65,19.07,19.07,0,0,1,3.66-1.14,14,14,0,0,1,6.9.66,27.66,27.66,0,0,1,6.22,3.19,1.11,1.11,0,0,1,.58.69,1.05,1.05,0,0,1-.15.59,11.86,11.86,0,0,1-7.71,6,18.67,18.67,0,0,1-9.92-.43c-3.15-.93-6.32-2.65-7.77-5.6"/><path class="tup--b-cls-12" d="M98.66,28.62a36.84,36.84,0,0,1,.4,7.74c-.08,1-.63,1.08.08,1.86s2,.56,3,.42,2.18-.41,3.26-.65a21.39,21.39,0,0,0,2.25-.45c-.17-2.61-.69-5.12-.39-7.74.07-.64.71-1.35,0-1.84a2.29,2.29,0,0,0-1.14-.35c-1.11,0-1.59,1-2.77.63a15.49,15.49,0,0,1-3-1.61C98.2,25.52,98.32,27,98.66,28.62Z"/><path class="tup--b-cls-12" d="M96.34,20.24c.34,5.79,2.46,8.45,4.48,10.15,1.12.94,9.57,3.07,11-6.24,1.73-11.33-6.14-12.3-6.14-12.3C101.67,9.39,96,14.44,96.34,20.24Z"/><path class="tup--b-cls-20" d="M97.29,8.36a11.87,11.87,0,0,0-3.2,4.91,3.58,3.58,0,0,0,0,1.33c.06.48.18,1,.24,1.47a26.36,26.36,0,0,0,1.12,4.76A3.81,3.81,0,0,0,96.63,23c1,.63.85-.67.84-1.31,0-1.56.7-2.54,1.25-3.94A9.71,9.71,0,0,1,99.87,15c1.08,2.42,3.48,2.42,5.94,2.76,1,.13,1.9.26,2.86.34.7.06,1.93-.16,2.47.37a5.83,5.83,0,0,1,.71,1.8c.19.7-.21,1.76.32,2.33a3.35,3.35,0,0,0,1.72.54c1.24.1,2.39-.65,3.54,0A16.61,16.61,0,0,0,121,24.74c5.8,1.86,11.68,1.19,17.28-1,1.85-.71,4.16-.66,5.78-1.75,1.35-.92,2.32-2.71,3.24-4,1.82-2.6,3.36-4,1.7-7.16a11.42,11.42,0,0,0-7.17-5.73c-2.84-.76-5.91-.18-8.8-.26a32,32,0,0,1-4.12-.6,20.51,20.51,0,0,0-4.84.2,25.25,25.25,0,0,1-5.56.09c-1.14-.17-2.2-.65-3.36-.76a31.8,31.8,0,0,0-11.67,1.61C101.33,6.08,98.9,6.71,97.29,8.36Z"/><path class="tup--b-cls-21" d="M95.67,36a90.35,90.35,0,0,0-8.17,4.37c-.85.62,0,16.3.82,20.09.5,2.28,1.77,19.34,2.4,20.12s13.68,1.6,13.68,1.6c4.3,6.34,14.24,5.84,16.84,4.47,0,0-.83-27-.75-28.82.14-3,.73-17.18.73-17.18L110.94,36a8,8,0,0,1-7.9,4.19C97.53,39.73,95.67,36,95.67,36Z"/><path class="tup--b-cls-22" d="M93.95,42.5a6.32,6.32,0,0,0-.78.9c-.3.42.4.81.69.4a5.23,5.23,0,0,1,.65-.74C94.89,42.71,94.32,42.15,93.95,42.5Z"/><path class="tup--b-cls-22" d="M96.39,49.19a.4.4,0,0,0,.21-.77A1.23,1.23,0,0,1,96,48c-.34-.39-.9.19-.56.57A2,2,0,0,0,96.39,49.19Z"/><path class="tup--b-cls-22" d="M105,47.22l-.73.33c-.47.21-.06.9.41.69l.73-.33C105.88,47.69,105.46,47,105,47.22Z"/><path class="tup--b-cls-22" d="M101.9,43.38a2.69,2.69,0,0,0-.88.67c-.34.39.23,1,.57.56a2.11,2.11,0,0,1,.71-.54C102.77,43.85,102.36,43.16,101.9,43.38Z"/><path class="tup--b-cls-22" d="M111.43,42.29a2.73,2.73,0,0,0-.84-.29c-.5-.08-.71.69-.21.77A2.06,2.06,0,0,1,111,43C111.49,43.22,111.89,42.53,111.43,42.29Z"/><path class="tup--b-cls-22" d="M112.42,49.88a2.77,2.77,0,0,1,.4-.85c.29-.42-.4-.82-.69-.4a3.45,3.45,0,0,0-.48,1A.4.4,0,0,0,112.42,49.88Z"/><path class="tup--b-cls-22" d="M117.41,45.12l.94.16c.5.09.71-.69.21-.77l-.94-.16C117.11,44.26,116.9,45,117.41,45.12Z"/><path class="tup--b-cls-22" d="M115.76,39.07a2.8,2.8,0,0,0-1.09.47c-.42.3,0,1,.41.69a2.22,2.22,0,0,1,.9-.39C116.48,39.74,116.26,39,115.76,39.07Z"/><path class="tup--b-cls-22" d="M88.27,46.22a.9.9,0,0,1-.41-.17c-.43-.29-.82.41-.4.69a1.73,1.73,0,0,0,.82.28C88.79,47.08,88.78,46.28,88.27,46.22Z"/><path class="tup--b-cls-22" d="M89.29,40.44c.06-.51-.74-.5-.8,0a1.72,1.72,0,0,0,.07.71.4.4,0,0,0,.77-.22A1.15,1.15,0,0,1,89.29,40.44Z"/><path class="tup--b-cls-22" d="M90.88,54.16a.58.58,0,0,1,.26-.25c.45-.25,0-.94-.41-.69a1.37,1.37,0,0,0-.55.54A.4.4,0,0,0,90.88,54.16Z"/><path class="tup--b-cls-22" d="M96.16,55.51a2.57,2.57,0,0,0,.32,1c.25.45.94,0,.69-.41a1.56,1.56,0,0,1-.21-.6C96.9,55,96.1,55,96.16,55.51Z"/><path class="tup--b-cls-22" d="M102.73,55.24a5.91,5.91,0,0,0,1-.43c.46-.24,0-.93-.41-.69a4.79,4.79,0,0,1-.85.34A.4.4,0,0,0,102.73,55.24Z"/><path class="tup--b-cls-22" d="M110.2,55.19c-.43-.29-.82.41-.4.69a5,5,0,0,1,.66.53c.37.35.94-.22.56-.57A6.2,6.2,0,0,0,110.2,55.19Z"/><path class="tup--b-cls-22" d="M105.76,59.55l-.67.54c-.4.32.17.88.57.56l.67-.54C106.73,59.78,106.15,59.23,105.76,59.55Z"/><path class="tup--b-cls-22" d="M117.31,53.75c.35.38.91-.2.56-.57a2.75,2.75,0,0,0-.95-.66c-.47-.2-.87.5-.4.69A2.19,2.19,0,0,1,117.31,53.75Z"/><path class="tup--b-cls-22" d="M114.85,60.08c-.42-.29-.82.4-.4.69l.94.65c.42.29.82-.4.4-.69Z"/><path class="tup--b-cls-22" d="M98.41,61.5c-.29-.42-1,0-.69.41a2.56,2.56,0,0,0,.48.54c.39.33,1-.24.56-.57A1.81,1.81,0,0,1,98.41,61.5Z"/><path class="tup--b-cls-22" d="M91,60.54a1.52,1.52,0,0,1,.56-.05c.51,0,.5-.76,0-.8a2.16,2.16,0,0,0-.77.08A.4.4,0,0,0,91,60.54Z"/><path class="tup--b-cls-22" d="M91.72,67.22a2,2,0,0,1,.9-.5A.4.4,0,0,0,92.4,66a2.78,2.78,0,0,0-1.25.7C90.78,67,91.35,67.58,91.72,67.22Z"/><path class="tup--b-cls-22" d="M96.47,69.83l-.75-.5c-.43-.29-.82.41-.4.69l.75.5C96.5,70.81,96.9,70.11,96.47,69.83Z"/><path class="tup--b-cls-22" d="M103.65,67.4a5.15,5.15,0,0,0-1,.7c-.39.33.18.89.57.56a4.32,4.32,0,0,1,.87-.57C104.52,67.85,104.11,67.17,103.65,67.4Z"/><path class="tup--b-cls-22" d="M110.47,68c-.34-.38-.9.19-.56.57l.47.53c.34.38.9-.19.56-.57Z"/><path class="tup--b-cls-22" d="M117.59,68l-.8.48a.4.4,0,0,0,.41.69l.8-.48A.4.4,0,0,0,117.59,68Z"/><path class="tup--b-cls-22" d="M114.92,73.94c-.35-.38-.91.19-.56.57l.54.59c.35.38.91-.19.56-.57Z"/><path class="tup--b-cls-22" d="M106.74,74.27l-.65.62c-.37.36.2.92.57.56l.65-.62C107.69,74.47,107.12,73.91,106.74,74.27Z"/><path class="tup--b-cls-22" d="M112.64,81.08c-.46-.24-.86.46-.4.69a1.48,1.48,0,0,1,.51.4c.31.4,1,0,.69-.41A2.38,2.38,0,0,0,112.64,81.08Z"/><path class="tup--b-cls-22" d="M118.43,79.6a11.08,11.08,0,0,0-.94.65c-.4.31,0,1,.41.69a11.06,11.06,0,0,1,.94-.65A.4.4,0,0,0,118.43,79.6Z"/><path class="tup--b-cls-22" d="M101.49,78.43l-.48-.24c-.46-.23-.86.46-.4.69l.48.24C101.55,79.35,102,78.66,101.49,78.43Z"/><path class="tup--b-cls-22" d="M98,74.62a9.06,9.06,0,0,0-1.27,1.08.4.4,0,0,0,.57.56,7.94,7.94,0,0,1,1.11-1C98.86,75,98.46,74.33,98,74.62Z"/><path class="tup--b-cls-22" d="M92.1,73.61a.9.9,0,0,0-.75-.29c-.51,0-.51.85,0,.8a.14.14,0,0,1,.19.06C91.9,74.55,92.46,74,92.1,73.61Z"/><path class="tup--b-cls-22" d="M92.85,78.6l-.54.53c-.37.36.2.92.57.56l.54-.53C93.79,78.8,93.22,78.24,92.85,78.6Z"/><path class="tup--b-cls-12" d="M118.08,90s-3.39,1.84-4.71,4.29c0,0-.53,1.12.26,1.35s.36,1.29,1.19,1.55.61,1.09,1.8,1.07a1.13,1.13,0,0,0,1.15.66c.81-.11,2.71-.24,2.84-.65a18.66,18.66,0,0,0,.94-2.28c-.08-.18-.3-.44-.92-.19a5.22,5.22,0,0,0,.88-1.12,6.29,6.29,0,0,0,.52-2l-.35-3.48Z"/><path class="tup--b-cls-17" d="M135.95,65.64a.76.76,0,0,0-.07-.39c-.54-1-10.93-21.95-14.67-24.63-4-2.84-7.87,3.8-6.14,6.66.82,1.35,7.17,14,11,19-1.31,2.47-3.28,9.67-8.5,23l4.86,3.64c12.47-18.35,13.79-25.42,13.79-25.42A6.35,6.35,0,0,0,135.95,65.64Z"/><path class="tup--b-cls-23" d="M151.46,53.15A4.89,4.89,0,0,0,150.07,49c-1.6-1.89-3.46-2.67-7.08-4-1.35-.51-4.76-1.64-5.26-1.17s.24,1.52.76,2.25,1.08,3.13,1.37,3.61,1.38,1.56,1.47,1.89a2.3,2.3,0,0,0,.63,1.33,12.78,12.78,0,0,0,3.85,2.78h0l.21.08a5.53,5.53,0,0,1,2,1.06C148.31,57.25,151.46,53.16,151.46,53.15Z"/><path class="tup--b-cls-24" d="M149.59,50.84a3.42,3.42,0,0,0-1.1-3c-1.24-1.37-2.67-1.95-5.46-3-1-.38-3.66-1.21-4-.88s.19,1.09.6,1.62a27,27,0,0,1,1.08,2.6c.23.34,1.07,1.13,1.14,1.37a1.64,1.64,0,0,0,.5,1,10.05,10.05,0,0,0,3,2h0l.16.06a4.44,4.44,0,0,1,1.51.78C147.21,53.77,149.59,50.86,149.59,50.84Z"/><path class="tup--b-cls-23" d="M168.49,50.38c-.79,1.32-1,14.33-1,14.33l-16-11.57L148,56.76s18.45,21,21,21,9.35-9.36,9.35-9.36l-3.37-21Z"/><path class="tup--b-cls-6" d="M183.88,186.07c-.67.13-23,2.07-23,2.07s-.44,1.7,0,2.12,4,1.94,9.25,1.09c6.25-1,13.6-2.49,14-3A8.09,8.09,0,0,0,183.88,186.07Z"/><path class="tup--b-cls-6" d="M206.42,185.41c-.43.24-22.93,3.44-22.93,3.44s-.45,1.95.77,2.68c.89.54,8.68,1.05,12.25.09s10.27-3.59,10.31-4.48A5.82,5.82,0,0,0,206.42,185.41Z"/><path class="tup--b-cls-25" d="M176.8,181.16s-11.9,5.34-13.89,5.92-2.07,1.06-2.07,1.06,2.91,1.82,9.82.78,12.4-2.6,13.09-2.65-1.21-5.55-1.21-5.55Z"/><path class="tup--b-cls-25" d="M203.5,180c-1.43-.43-5.74.45-5.74.45a51.26,51.26,0,0,1-12.48,7.38c-6.67,2.55,6.72,2.36,10.49,1.74s10.51-3.55,10.65-4.15S204.93,180.41,203.5,180Z"/><path class="tup--b-cls-23" d="M176.33,176.65l.47,4.51a5.12,5.12,0,0,0,5.74-.45l-.48-4.24Z"/><path class="tup--b-cls-23" d="M203,175.74l-5.73.18.47,4.51a5.12,5.12,0,0,0,5.74-.45Z"/><path class="tup--b-cls-26" d="M174,80.74s-6.58,44.43-5.89,55,6,41.23,6,41.23,5.43,2.87,9.38.15c0,0-1.46-27.55-1.46-40.4s7.54-34.64,7.54-34.64l2.38,74.15s8.27,2.71,11.34-.34c0,0,2.87-79,2.73-83.92a39.34,39.34,0,0,0-1.46-9.23Z"/><path class="tup--b-cls-27" d="M180.5,30.06s-6.39.73-8.31,4.29.31,27.68.7,37.93-1.62,17.35-.34,18.79,28.94.45,32.67-5.36c1.42-2.21,1.65-29.15,1.65-29.15s7,.17,11.46-3.23c0,0-3.32-17.17-6.4-19.53s-16.06-3.47-16.06-3.47Z"/><path class="tup--b-cls-23" d="M196.74,25.33,198,32.54s-10.71,7.56-13,5.41,1.45-12.5-1-16.54C184,21.4,191.36,26.76,196.74,25.33Z"/><path class="tup--b-cls-23" d="M185,6a82.13,82.13,0,0,1-4.7,6.88c-.42.54-1.82,1.09-1.89,1.8s1,.65,1.35,1.06c.43.58,0,.56-.34.93-.6.76.07,1,.85,1.27a2.63,2.63,0,0,0-1.35.1c-.62.4,0,.89-.22,1.42-.38,1-1.72,1.35-.38,2.39a21.33,21.33,0,0,0,6.7,3.34S196.39,28.74,199.6,23,206.53,10.46,203,9.21,188.78-1.26,185,6Z"/><path class="tup--b-cls-28" d="M204.71,19.27c2.42-4.11.27-8.84-2.88-11.82a38.09,38.09,0,0,0-5.74-4.74c-3-1.91-13.11-5.48-12.94,1a7.26,7.26,0,0,0,2.38,5.61c1.79,1.45,7,2.61,5.28,5.88-.32.59-1.4,1.83-.16,2.15s1.35-1.22,2.3-1.29.63,1.24.46,1.79c-.68,2.14-.58,3.61.85,5.37a4.4,4.4,0,0,0,7.22-.15c.92-1.34,2.16-2.19,3-3.51Z"/><path class="tup--b-cls-27" d="M175.91,31.72c-1.56-.78-6.16,5.24-6.7,7.57s-1.16,9.62-1.16,9.62l-.34,3.52,10,1.57Z"/><path class="tup--b-cls-23" d="M208.53,55.78s4.43,10,3.67,12.62S206,86.81,203.25,86.74s-4.44,1.61-6.34,2.39,1,1.73,4.68.08l4.69,5a24.13,24.13,0,0,1,3.8-6.69c2.57-3.11,12.41-15.46,12.73-18.52s-4.48-15.71-4.48-15.71Z"/><rect class="tup--b-cls-29" x="141.54" y="39.57" width="2.13" height="16.85" rx="0.67" ry="0.67" transform="matrix(0.82, -0.57, 0.57, 0.82, -2.06, 89.36)"/><rect class="tup--b-cls-30" x="142.25" y="40.19" width="1.18" height="15.4" transform="translate(-1.96 89.47) rotate(-34.56)"/><polygon class="tup--b-cls-31" points="141.03 44.21 142 47.72 144.94 51.99 143.97 48.48 141.03 44.21"/><path class="tup--b-cls-23" d="M150.19,54s1.79-1.75.75-5.11a7.6,7.6,0,0,0-3.21-3.63c-1.49-.75-2.9-2.49-3.17-2.23s-.49,1.1.27,2.35,2.33,1.73,2.37,2.45C147.46,52.45,148,55.11,150.19,54Z"/><path class="tup--b-cls-23" d="M142.9,49.08c-.16-1.13-1.19-1.4-1.3-.87l-.15.75a9.54,9.54,0,0,0-.06-1.85c-.24-1.17-1.32-1.22-1.39-.63l0,.25a10.91,10.91,0,0,0-.35-2c-.4-1.16-1.46-.89-1.45-.25s.1,3.67.12,4.45a.46.46,0,0,0,.12.3c.49.53.91.65,1.19.45l-.11.9a.51.51,0,0,0,.08.35c.56.83,1.08.94,1.41.47l-.05.28c-.16,1.09,1.4,1.79,1.7.56A10.86,10.86,0,0,0,142.9,49.08Z"/></g></g>
</svg>