<?xml version="1.0"?>
<svg xmlns="http://www.w3.org/2000/svg" height="512px" viewBox="-78 0 1166 1166.2485" width="512px" class=""><g><path d="m979.710938 298.582031c-79.695313-171.34375-246.8125-285.296875-435.429688-296.871093l-19.027344-1.710938-16.855468.425781c-58.175782 2.125-115.207032 16.882813-167.121094 43.238281-138.054688 69.023438-225.0625 210.3125-224.550782 364.644532v72.359375l-113.824218 189.71875c-3.605469 5.996093-3.710938 13.476562-.261719 19.574219 3.445313 6.09375 9.90625 9.859374 16.917969 9.859374h121.683594l-11.8125 175.171876c-9.027344 51.835937 25.132812 101.34375 76.789062 111.304687 1.289062.246094 2.582031.390625 3.894531.390625.695313 0 1.382813-.046875 2.078125-.132812l118.3125-12.816407v173.078125c0 10.734375 8.703125 19.433594 19.433594 19.433594h466.425781c10.730469 0 19.429688-8.699219 19.429688-19.433594v-193.136718l151.886719-375.238282c33.382812-90.839844 30.523437-191.054687-7.96875-279.859375zm-28.359376 266.042969-152.996093 378.132812c-1.074219 2.765626-1.488281 5.746094-1.191407 8.707032 0 .390625-.238281.738281-.238281 1.152344v174.761718h-427.558593v-174.910156c0-.398438-.207032-.757812-.226563-1.160156-.027344-.414063.167969-.851563.121094-1.308594-.265625-1.128906-.609375-2.234375-1.0625-3.292969-.195313-.816406-.449219-1.613281-.75-2.390625-.804688-1.710937-1.847657-3.296875-3.105469-4.710937-.234375-.269531-.347656-.660157-.609375-.925781-.246094-.285157-.292969-.152344-.410156-.253907-4.066407-4.144531-9.769531-6.222656-15.539063-5.652343l-136.78125 14.804687c-30.171875-7.597656-49.109375-37.496094-43.09375-68.023437l13.425782-197.84375c.742187-10.683594-7.285157-19.96875-17.972657-20.757813-1.46875 0-109.429687 0-109.429687 0l98.9375-164.949219c.167968-.40625.320312-.832031.441406-1.25.574219-1.171875 1.007812-2.402344 1.316406-3.660156.390625-1.28125.640625-2.574219.777344-3.898438 0-.445312.242188-.839843.242188-1.300781v-77.585937c-.523438-139.6875 78.15625-267.597656 203.054687-330.144532 46.964844-23.835937 98.558594-37.175781 151.195313-39.105468h15.394531c180.421875 5.140625 342.515625 111.628906 418.871093 275.175781 34.386719 79.46875 36.953126 169.082031 7.1875 250.390625zm0 0" data-original="#000000" class="active-path" data-old_color="#1cb0d5" fill="#1cb0d5"/><path d="m324.816406 381.8125c-7.714844-7.289062-19.78125-7.289062-27.488281 0l-109.9375 109.929688c-5.558594 5.566406-7.21875 13.914062-4.210937 21.179687 3.007812 7.261719 10.089843 11.992187 17.957031 11.992187h51.625v174.90625c0 10.734376 8.707031 19.445313 19.445312 19.445313h77.730469c10.726562 0 19.429688-8.710937 19.429688-19.445313v-174.90625h51.648437c7.851563 0 14.933594-4.730468 17.941406-11.992187 3.007813-7.265625 1.34375-15.613281-4.195312-21.179687zm25.121094 104.230469c-10.730469 0-19.433594 8.707031-19.433594 19.445312v174.90625h-38.871094v-174.90625c0-10.738281-8.703124-19.445312-19.425781-19.445312h-24.167969l63.027344-63.015625 63.035156 63.015625zm0 0" data-original="#000000" class="active-path" data-old_color="#1cb0d5" fill="#1cb0d5"/><path d="m558.019531 304.066406c-7.703125-7.289062-19.761719-7.289062-27.480469 0l-109.933593 109.941406c-5.5625 5.558594-7.21875 13.917969-4.214844 21.179688 3.011719 7.257812 10.085937 11.988281 17.953125 11.988281h51.640625v252.644531c0 10.734376 8.6875 19.445313 19.425781 19.445313h77.738282c10.738281 0 19.4375-8.710937 19.4375-19.445313v-252.644531h51.636718c7.859375 0 14.9375-4.730469 17.949219-11.988281 3.003906-7.261719 1.347656-15.621094-4.207031-21.179688zm25.128907 104.242188c-10.734376 0-19.433594 8.703125-19.433594 19.4375v252.648437h-38.871094v-252.648437c0-10.734375-8.699219-19.4375-19.433594-19.4375h-24.164062l63.035156-63.015625 63.027344 63.015625zm0 0" data-original="#000000" class="active-path" data-old_color="#1cb0d5" fill="#1cb0d5"/><path d="m791.226562 226.332031c-7.695312-7.289062-19.765624-7.289062-27.476562 0l-109.9375 109.933594c-5.550781 5.5625-7.222656 13.925781-4.207031 21.1875 3.007812 7.25 10.085937 11.992187 17.957031 11.992187h51.625v330.375c0 10.734376 8.707031 19.445313 19.429688 19.445313h77.746093c10.730469 0 19.429688-8.710937 19.429688-19.445313v-330.375h51.648437c7.851563 0 14.929688-4.742187 17.9375-11.992187 3.011719-7.261719 1.34375-15.625-4.203125-21.1875zm25.136719 104.242188c-10.734375 0-19.4375 8.699219-19.4375 19.4375v330.382812h-38.867187v-330.382812c0-10.738281-8.707032-19.4375-19.441406-19.4375h-24.152344l63.027344-63.027344 63.03125 63.027344zm0 0" data-original="#000000" class="active-path" data-old_color="#1cb0d5" fill="#1cb0d5"/></g> </svg>
